<svg xmlns="http://www.w3.org/2000/svg" viewBox="0 0 400 400" role="img" aria-label="Illustration of a collapsible silicone travel bowl"><defs>
<linearGradient id="st" x1="0" y1="0" x2="1" y2="1"><stop offset="0" stop-color="#FAFBF9"/><stop offset=".55" stop-color="#D5DAD6"/><stop offset="1" stop-color="#AAB2AD"/></linearGradient>
<linearGradient id="stv" x1="0" y1="0" x2="0" y2="1"><stop offset="0" stop-color="#F6F7F5"/><stop offset=".6" stop-color="#CED4CF"/><stop offset="1" stop-color="#B3BAB5"/></linearGradient>
<linearGradient id="sth" x1="0" y1="0" x2="1" y2="0"><stop offset="0" stop-color="#B9C0BB"/><stop offset=".35" stop-color="#F7F8F6"/><stop offset=".7" stop-color="#D2D7D3"/><stop offset="1" stop-color="#A9B1AC"/></linearGradient>
<linearGradient id="wd" x1="0" y1="0" x2="1" y2="1"><stop offset="0" stop-color="#E9D6B4"/><stop offset="1" stop-color="#C7A170"/></linearGradient>
<linearGradient id="wdd" x1="0" y1="0" x2="1" y2="1"><stop offset="0" stop-color="#C9A574"/><stop offset="1" stop-color="#9C7647"/></linearGradient>
<linearGradient id="br" x1="0" y1="0" x2="1" y2="1"><stop offset="0" stop-color="#E6CF9E"/><stop offset="1" stop-color="#AD874D"/></linearGradient>
<linearGradient id="ch" x1="0" y1="0" x2="1" y2="1"><stop offset="0" stop-color="#4A5652"/><stop offset="1" stop-color="#1F2926"/></linearGradient>
<linearGradient id="chv" x1="0" y1="0" x2="0" y2="1"><stop offset="0" stop-color="#4E5A56"/><stop offset="1" stop-color="#232D2A"/></linearGradient>
<linearGradient id="fb" x1="0" y1="0" x2="1" y2="1"><stop offset="0" stop-color="#E2DED6"/><stop offset="1" stop-color="#BDB7AC"/></linearGradient>
<linearGradient id="sg" x1="0" y1="0" x2="1" y2="1"><stop offset="0" stop-color="#D3DCCD"/><stop offset="1" stop-color="#9FAE9A"/></linearGradient>
<linearGradient id="sd" x1="0" y1="0" x2="1" y2="1"><stop offset="0" stop-color="#EEE0C6"/><stop offset="1" stop-color="#D0B88D"/></linearGradient>
<linearGradient id="gn" x1="0" y1="0" x2="1" y2="1"><stop offset="0" stop-color="#36574B"/><stop offset="1" stop-color="#1A2F28"/></linearGradient>
<linearGradient id="wh" x1="0" y1="0" x2="1" y2="1"><stop offset="0" stop-color="#FFFFFF"/><stop offset="1" stop-color="#E3E7E4"/></linearGradient>
<linearGradient id="cr" x1="0" y1="0" x2="1" y2="1"><stop offset="0" stop-color="#F6F0E3"/><stop offset="1" stop-color="#DCCFB6"/></linearGradient>
<linearGradient id="bl" x1="0" y1="0" x2="1" y2="1"><stop offset="0" stop-color="#BAC6CE"/><stop offset="1" stop-color="#8395A1"/></linearGradient>
<linearGradient id="clr" x1="0" y1="0" x2="1" y2="1"><stop offset="0" stop-color="#FFFFFF" stop-opacity=".9"/><stop offset="1" stop-color="#CFDAD8" stop-opacity=".55"/></linearGradient>
<pattern id="mesh" width="7" height="7" patternUnits="userSpaceOnUse"><path d="M0 0H7M0 0V7" stroke="#9AA39E" stroke-width=".8" fill="none"/></pattern>
<pattern id="meshd" width="9" height="9" patternUnits="userSpaceOnUse"><circle cx="4.5" cy="4.5" r="2.1" fill="#111816"/></pattern>
<pattern id="linen" width="5" height="5" patternUnits="userSpaceOnUse"><path d="M0 2.5H5M2.5 0V5" stroke="#000" stroke-opacity=".06" stroke-width="1"/></pattern>
<pattern id="knit" width="6" height="6" patternUnits="userSpaceOnUse"><path d="M0 0L3 6L6 0" stroke="#000" stroke-opacity=".10" stroke-width="1" fill="none"/></pattern>
<filter id="blur" x="-20%" y="-200%" width="140%" height="500%"><feGaussianBlur stdDeviation="6"/></filter>
</defs><ellipse cx="200" cy="318" rx="160" ry="12" fill="#1B2623" opacity="0.16" filter="url(#blur)"/><path d="M59.7 196 L75.2 228 L224.8 228 L240.3 196 Z" fill="url(#sg)" stroke="#1B2623" stroke-width="2.2" stroke-linejoin="round" stroke-linecap="round" /><path d="M75.2 228 L89.4 258 L210.6 258 L224.8 228 Z" fill="url(#sg)" stroke="#1B2623" stroke-width="2.2" stroke-linejoin="round" stroke-linecap="round" /><path d="M89.4 258 L102.3 284 L197.7 284 L210.6 258 Z" fill="url(#sg)" stroke="#1B2623" stroke-width="2.2" stroke-linejoin="round" stroke-linecap="round" /><ellipse cx="150" cy="284" rx="47.7" ry="9" fill="#93A28E" stroke="#1B2623" stroke-width="2.2" stroke-linejoin="round" stroke-linecap="round" /><ellipse cx="150" cy="196" rx="90.3" ry="20" fill="#E3E9DF" stroke="#1B2623" stroke-width="2.2" stroke-linejoin="round" stroke-linecap="round" /><ellipse cx="150" cy="199" rx="80.3" ry="14" fill="#C4CFBF" stroke="#1B2623" stroke-linejoin="round" stroke-linecap="round" stroke-width='1.2'/><g transform="translate(236 168) rotate(18) scale(0.8)"><path d="M0 0 C-14 0 -16 18 -12 32 L-6 52 C-2 62 14 62 16 50 L20 20 C22 4 12 0 0 0 Z" fill="none" stroke="url(#br)" stroke-width="6"/><path d="M0 0 C-14 0 -16 18 -12 32 L-6 52 C-2 62 14 62 16 50 L20 20 C22 4 12 0 0 0 Z" fill="none" stroke="#1B2623" stroke-linejoin="round" stroke-linecap="round" stroke-width='1.4'/><path d="M18 18 L12 44" stroke="#1B2623" stroke-width="2" stroke-linecap="round"/></g><ellipse cx="290" cy="286" rx="70" ry="20" fill="url(#fb)" stroke="#1B2623" stroke-width="2.2" stroke-linejoin="round" stroke-linecap="round" /><ellipse cx="290" cy="281" rx="58" ry="16" fill="#CFC9BE" stroke="#1B2623" stroke-width="2.2" stroke-linejoin="round" stroke-linecap="round" /><ellipse cx="290" cy="276" rx="46" ry="12" fill="url(#fb)" stroke="#1B2623" stroke-width="2.2" stroke-linejoin="round" stroke-linecap="round" /><ellipse cx="290" cy="271" rx="34" ry="9" fill="#CFC9BE" stroke="#1B2623" stroke-width="2.2" stroke-linejoin="round" stroke-linecap="round" /><ellipse cx="290" cy="266" rx="20" ry="5" fill="#B5AEA2" stroke="#1B2623" stroke-linejoin="round" stroke-linecap="round" stroke-width='1.4'/><g transform="translate(344 234) rotate(-20) scale(0.7)"><path d="M0 0 C-14 0 -16 18 -12 32 L-6 52 C-2 62 14 62 16 50 L20 20 C22 4 12 0 0 0 Z" fill="none" stroke="url(#br)" stroke-width="6"/><path d="M0 0 C-14 0 -16 18 -12 32 L-6 52 C-2 62 14 62 16 50 L20 20 C22 4 12 0 0 0 Z" fill="none" stroke="#1B2623" stroke-linejoin="round" stroke-linecap="round" stroke-width='1.4'/><path d="M18 18 L12 44" stroke="#1B2623" stroke-width="2" stroke-linecap="round"/></g></svg>